# xmcd CD database file
#
# Track frame offsets:
#	150
#	26216
#	45264
#	90842
#	123181
#	154162
#	175968
#	201883
#
# Disc length: 3057 seconds
#
# Revision: 0
# Processed by: cddbd v1.5.2PL0 Copyright (c) Steve Scherf et al.
# Submitted via: CDex 1.51
#
DISCID=5a0bef08
DTITLE=Hilario Duran Trio - Motion
DYEAR=2010
DGENRE=Jazz
TTITLE0=Hilario Duran Trio - It's Only Seven
TTITLE1=Hilario Duran Trio - Conversation With A Lunatic
TTITLE2=Hilario Duran Trio - Havana City
TTITLE3=Hilario Duran Trio - For Emiliano
TTITLE4=Hilario Duran Trio - Tango Moruno
TTITLE5=Hilario Duran Trio - Motion
TTITLE6=Hilario Duran Trio - Danza Negra
TTITLE7=Hilario Duran Trio - Timba en Trampa
EXTD=YEAR: 2010
EXTT0=
EXTT1=
EXTT2=
EXTT3=
EXTT4=
EXTT5=
EXTT6=
EXTT7=
PLAYORDER=
